<svg width="145" height="145" viewBox="0 0 145 145" fill="none" xmlns="http://www.w3.org/2000/svg">
<path d="M127.851 25.7389C110.403 25.7914 94.5839 30.679 80.7094 41.8205C73.2992 47.7591 66.8875 54.6963 60.2656 61.4233C44.0262 77.7677 24.9488 86.4391 1.87726 84.0216C1.19405 80.1326 0.878723 76.2436 0.878723 72.2495C0.878723 68.2028 1.19405 64.2612 1.82471 60.4247C14.6481 58.9006 26.8408 61.4758 38.5605 66.994C44.5517 69.832 44.4992 69.9371 50.0174 65.1021C49.7021 64.8918 49.3868 64.7342 49.124 64.524C35.4598 55.7474 20.4291 51.9109 4.29478 52.7518C4.03201 52.7518 3.82179 52.7518 3.55902 52.8043C4.08456 50.9124 4.71522 49.0204 5.39843 47.181C21.8481 45.0263 37.089 48.8102 51.1736 57.9547C55.4306 60.7401 55.3255 60.74 58.9517 57.1138C60.2656 55.7999 60.0554 55.1693 58.689 54.1708C52.6452 49.8087 46.2335 46.0774 39.1386 43.6599C29.2583 40.2964 19.2203 38.6147 8.86705 39.3504C9.91814 37.3008 11.0218 35.3563 12.2831 33.4643C13.7546 33.3067 15.2262 33.2016 16.7503 33.149C32.9897 33.0439 47.705 37.6161 60.5809 47.7591C64.7328 51.0175 64.7328 50.9649 68.5693 47.2336C69.6204 46.1825 69.7255 45.657 68.5167 44.6584C60.6335 38.1942 52.1196 32.7811 42.2919 29.6804C34.3561 27.2104 26.2627 25.7389 17.959 25.7389C31.0977 10.1302 50.8583 0.25 72.8788 0.25C94.8992 0.25 114.607 10.1302 127.851 25.7389Z" fill="#AFAFAF"/>
<path d="M136.89 39.2983C118.654 38.51 101.941 42.7144 87.1209 54.0661C79.08 60.215 72.2479 67.5726 65.2056 74.72C48.4932 91.5899 28.8902 100.156 5.3457 97.2132C4.66249 95.4264 4.08439 93.587 3.55884 91.7476C3.87417 91.7476 4.24205 91.8001 4.66249 91.8001C5.45081 91.8527 6.23913 91.8527 7.02745 91.8527C27.1034 91.8527 44.6041 85.1783 59.7399 71.9346C66.9924 65.5755 73.0888 58.1128 80.2362 51.6486C94.1632 39.1407 110.192 32.6239 128.954 33.1495C130.479 33.202 132.003 33.3071 133.527 33.4648C134.736 35.3567 135.892 37.3013 136.89 39.2983Z" fill="#AFAFAF"/>
<path d="M142.199 52.7512C131.635 52.1205 121.334 53.3818 111.296 56.9555C96.7913 62.1059 85.5446 71.9335 75.2439 82.9174C71.4074 87.0166 67.4658 90.9582 63.1563 94.5844C49.4921 106.199 33.6731 111.665 15.8045 111.297C14.5957 111.297 13.387 111.192 12.1782 111.034C10.9694 109.142 9.86579 107.197 8.8147 105.2C30.257 106.094 48.8089 99.2618 64.9432 85.1772C72.0906 78.9233 77.9242 71.4605 85.0716 65.2591C94.6366 56.903 105.095 50.3337 117.813 47.9687C125.223 46.6023 132.634 46.2344 140.359 47.1279C141.042 48.9147 141.673 50.8067 142.199 52.7512Z" fill="#AFAFAF"/>
<path d="M144.879 72.2496C144.879 76.2963 144.563 80.2378 143.933 84.1269C130.689 85.3882 117.971 83.4437 105.988 77.1371C101.258 74.6145 101.311 74.6671 97.159 77.9255C95.5298 79.1868 95.9503 79.6072 97.3692 80.5532C109.352 88.5414 122.701 91.4845 136.838 91.7472C138.467 91.7472 140.149 91.8524 141.831 91.7472C141.988 91.7472 142.146 91.7472 142.251 91.6947C141.725 93.5866 141.095 95.4786 140.412 97.318C124.067 99.0523 108.669 96.372 94.7415 86.6495C90.1167 83.4437 90.1692 83.4437 86.3327 87.648C85.4919 88.594 85.4393 89.0144 86.4904 89.8553C101.468 101.68 118.496 106.095 136.996 105.096C135.944 107.146 134.841 109.09 133.579 110.982C131.74 111.14 129.953 111.297 128.166 111.35C121.019 111.56 114.134 110.141 107.25 108.775C99.1035 106.147 91.7984 101.995 85.124 96.6874C80.9721 93.3764 80.9721 93.429 77.1882 97.2655C76.0845 98.4216 76.1897 98.9472 77.3459 99.8932C80.867 102.731 84.4933 105.569 88.3298 107.934C92.797 110.719 97.3692 113.295 102.52 114.556C110.771 117.604 119.285 118.708 127.956 118.655C114.66 134.316 94.9517 144.249 72.8787 144.249C50.8583 144.249 31.1502 134.369 17.9064 118.76C36.1429 118.497 52.3824 112.769 66.6772 101.26C73.6145 95.6888 79.3955 89.0144 85.6495 82.7079C101.679 66.5737 120.598 58.0073 143.723 60.2672C143.775 60.2672 143.828 60.2672 143.88 60.2672C144.563 64.2088 144.879 68.2029 144.879 72.2496Z" fill="#AFAFAF"/>
</svg>
